<?xml version="1.0" standalone="yes"?>
<svg xmlns="http://www.w3.org/2000/svg" width="152" height="152">
<path style="fill:rgba(0,0,0,0); stroke:none;" d="M0 0L0 152L152 152L152 0L0 0z"/>
<path style="fill:#de2010; stroke:none;" d="M57.6667 2.33333L58.3333 2.66667L57.6667 2.33333z"/>
<path style="fill:#e3af27; stroke:none;" d="M68 7C65.8129 -6.10547 42.1877 8.8338 37.0008 12.9205C35.169 14.3637 28.6511 18.2302 31.0864 21.3565C33.2685 24.1576 38.2545 19.6626 40 18.3449C48.9521 11.5872 56.7168 7.89168 68 7z"/>
<path style="fill:#de2010; stroke:none;" d="M67 2L68 3L67 2M52 3L53 4L52 3M50 4L51 5L50 4M48 5L49 6L48 5z"/>
<path style="fill:#f1e2d7; stroke:none;" d="M38 17C47.1848 11.8875 55.0968 6.22623 66 6C56.9533 2.23929 43.5508 10.1819 38 17z"/>
<path style="fill:#de2010; stroke:none;" d="M46 6L47 7L46 6M45 7L46 8L45 7M32 24C38.3558 24.6138 42.9245 18.6655 48 15.4421C54.2396 11.4794 60.6798 10.0606 68 10L68 7C53.6867 7.61456 42.2026 14.1475 32 24M43 8L44 9L43 8M41 9L42 10L41 9z"/>
<path style="fill:#e3af27; stroke:none;" d="M34 25C40.6447 34.4329 56.7879 53.8529 68 57L68 14L59 14L59 15C71.6496 21.947 54.2101 33.2725 52 19L36 27C45.5055 18.722 54.7891 11.2257 68 12C59.9452 2.7841 40.3068 20.4662 34 25z"/>
<path style="fill:#f1e2d7; stroke:none;" d="M36 27L56.0394 15.3418L68 14L68 12C55.9367 10.0813 43.3441 17.9205 36 27z"/>
<path style="fill:#de2010; stroke:none;" d="M35 14L36 15L35 14z"/>
<path style="fill:#e3af27; stroke:none;" d="M56.6667 14.3333L57.3333 14.6667L56.6667 14.3333z"/>
<path style="fill:#de2010; stroke:none;" d="M58.0008 14.9668C50.0869 15.434 50.9691 27.364 58.9853 26.7932C66.8447 26.2336 65.6326 14.5163 58.0008 14.9668z"/>
<path style="fill:#e3af27; stroke:none;" d="M53 16L54 17L53 16M52 17L53 18L52 17M74 18L74 23C81.9578 24.4826 88.9266 25.6327 96 29.9267C101.139 33.0465 105.66 39.1253 112 37C111.488 42.917 115.252 46.5575 121 47C120.264 41.4942 117.63 37.8761 112 37C109.798 24.0748 84.8482 18.0012 74 18z"/>
<path style="fill:#de2010; stroke:none;" d="M84.6667 18.3333L85.3333 18.6667L84.6667 18.3333z"/>
<path style="fill:#f1e2d7; stroke:none;" d="M34 19L33 21L34 19z"/>
<path style="fill:#de2010; stroke:none;" d="M86.6667 19.3333L87.3333 19.6667L86.6667 19.3333z"/>
<path style="fill:#f1e2d7; stroke:none;" d="M75 21L75 22L90 24L75 21z"/>
<path style="fill:#de2010; stroke:none;" d="M94 22L95 23L94 22M74 23C74.9097 27.2455 83.9282 27.213 88 28L88 29C69.5143 36.4018 101.033 50.4532 93 31L107 41L108 41L110 38L96 29.3372L74 23M96 23L97 24L96 23z"/>
<path style="fill:#f1e2d7; stroke:none;" d="M45 32L49 31L53 33L53 25C47.1564 23.3405 43.3436 25.7272 45 32M91 24L92 25L91 24z"/>
<path style="fill:#e3af27; stroke:none;" d="M74 29C77.7383 27.7539 84.9921 27.0316 84 31L88 29C84.8884 26.2593 75.1942 23.427 74 29z"/>
<path style="fill:#f1e2d7; stroke:none;" d="M74 29L74 31C78.4211 32.0491 81.6859 32.3837 85 29L74 29M98 28L99 29L98 28z"/>
<path style="fill:#de2010; stroke:none;" d="M103 28L104 29L103 28z"/>
<path style="fill:#0faa08; stroke:none;" d="M56 36L64 29C59.2366 29.5433 57.3805 31.4647 56 36z"/>
<path style="fill:#de2010; stroke:none;" d="M105 29L106 30L105 29z"/>
<path style="fill:#e3af27; stroke:none;" d="M74 31L74 57L83 55C82.0982 46.8223 90.4248 43.0542 93 52L114 48L110 42L104 45C108.58 37.9462 98.9787 33.2668 93 31L94 35L105 43L95 36C90.2154 44.9238 82.2956 41.109 82 32L74 31z"/>
<path style="fill:#de2010; stroke:none;" d="M108 31L109 32L108 31z"/>
<path style="fill:#f1e2d7; stroke:none;" d="M104 32L110 37L110 36L104 32z"/>
<path style="fill:#de2010; stroke:none;" d="M111 33L112 34L111 33z"/>
<path style="fill:#f1e2d7; stroke:none;" d="M95 34L105 43L95 34z"/>
<path style="fill:#de2010; stroke:none;" d="M112 34L113 35L112 34M60.054 36.9707C54.2904 38.2591 56.2442 47.6084 61.946 46.2485C67.6294 44.8929 65.8821 35.6679 60.054 36.9707M112 36L112 37L115 37L112 36z"/>
<path style="fill:#e3af27; stroke:none;" d="M39 40C29.4566 30.2917 18.6266 56.8955 17.635 63.9954C16.2036 74.2451 22.9979 65.8027 24.4398 61C25.5005 57.4672 27.0614 54.0751 29.1049 51C31.8462 46.8749 35.5178 43.4845 39 40z"/>
<path style="fill:rgba(0,0,0,0); stroke:none;" d="M111 37L104 45C107.435 43.3926 111.086 41.0743 111 37z"/>
<path style="fill:#de2010; stroke:none;" d="M32 38L33 39L32 38M30 39L31 40L30 39z"/>
<path style="fill:#f1e2d7; stroke:none;" d="M35 39L32 42L32 43L37 39L35 39M77 40L77 46L80 44L83 45C83.434 40.5251 81.2825 39.0335 77 40M112 39L118 45L112 39z"/>
<path style="fill:#de2010; stroke:none;" d="M26 69C25.319 57.3074 33.6782 48.9269 41 41C33.3644 39.5563 26.7252 52.6887 24.6944 59C23.5454 62.571 21.2382 67.9796 26 69M110 40C110.115 44.4497 112.836 46.8112 117 48L110 40z"/>
<path style="fill:#0faa08; stroke:none;" d="M95 46L100 41L95 46z"/>
<path style="fill:#de2010; stroke:none;" d="M119 41L120 42L119 41z"/>
<path style="fill:#e3af27; stroke:none;" d="M26 69L33 65C40.7377 67.1266 50.4333 63.0069 58 61C56.2385 54.7614 46.9153 43.6769 40 47L40 48C59.8792 52.0141 36.4482 72.1958 35 53L34 53L29 67L28 67C28.5643 56.0046 36.1109 50.3615 42 42C31.9802 44.8143 24.9725 59.0542 26 69z"/>
<path style="fill:#de2010; stroke:none;" d="M51 42L52 43L51 42M120 42C121.451 46.4663 123.164 49.2304 128 50L128 51C116.315 51.0967 104.315 55.3568 93 58.1019C76.4022 62.1286 59.4943 65.0967 43 69.5756C35.3748 71.6462 21.6203 71.6952 15.5602 76.9236C9.71003 81.9709 7.58284 97.6761 7 105L29 112L27 105L22 101C49.8643 97.3832 78.9437 88.1943 106 80.5586C112.907 78.6093 128.131 79.056 133.062 73.4113C137.751 68.0454 137.141 54.7997 138 48L120 42z"/>
<path style="fill:#f1e2d7; stroke:none;" d="M28 67L29 67L43 43C33.9076 47.2406 28.2307 57.1392 28 67z"/>
<path style="fill:#de2010; stroke:none;" d="M26 44L27 45L26 44z"/>
<path style="fill:#f1e2d7; stroke:none;" d="M30 44L31 45L30 44z"/>
<path style="fill:#de2010; stroke:none;" d="M43 44L44 45L43 44z"/>
<path style="fill:#f1e2d7; stroke:none;" d="M107 44L111 48L107 44z"/>
<path style="fill:#de2010; stroke:none;" d="M83 55L93 53C92.2035 42.5296 81.0008 45.2788 83 55M23 48L24 49L23 48M39.0586 49.0432C31.2308 53.0616 36.8386 65.5122 44.9414 61.642C52.906 57.8378 46.8146 45.0617 39.0586 49.0432z"/>
<path style="fill:#e3af27; stroke:none;" d="M37 49L38 50L37 49M36 50L37 51L36 50z"/>
<path style="fill:#de2010; stroke:none;" d="M102 50L103 51L102 50z"/>
<path style="fill:#e3af27; stroke:none;" d="M35 51L36 52L35 51z"/>
<path style="fill:#de2010; stroke:none;" d="M97 51L98 52L97 51M20 54L21 55L20 54z"/>
<path style="fill:#f1e2d7; stroke:none;" d="M23 55L24 56L23 55z"/>
<path style="fill:#de2010; stroke:none;" d="M80 55L81 56L80 55M19 56L20 57L19 56z"/>
<path style="fill:#e3af27; stroke:none;" d="M114.667 56.3333L115.333 56.6667L114.667 56.3333z"/>
<path style="fill:#f1e2d7; stroke:none;" d="M116 56L104 59L101 78L108 77L106 73L106 72L113 70L111 76C122.871 73.5416 119.632 65.7815 116 56z"/>
<path style="fill:#e3af27; stroke:none;" d="M111 57L112 58L111 57M117 57L117 60L118 60L117 57z"/>
<path style="fill:#f1e2d7; stroke:none;" d="M22.3333 58.6667L22.6667 59.3333L22.3333 58.6667z"/>
<path style="fill:#e3af27; stroke:none;" d="M106.667 58.3333L107.333 58.6667L106.667 58.3333z"/>
<path style="fill:#de2010; stroke:none;" d="M18 59L19 60L18 59z"/>
<path style="fill:#e3af27; stroke:none;" d="M98 60L99 61L98 60M116 60L117 61L116 60z"/>
<path style="fill:#f1e2d7; stroke:none;" d="M21 61L20 68L21 68L21 61z"/>
<path style="fill:#de2010; stroke:none;" d="M55 61L56 62L55 61z"/>
<path style="fill:#e3af27; stroke:none;" d="M94 61L95 62L94 61z"/>
<path style="fill:#f1e2d7; stroke:none;" d="M82 64L82 70L90 67C86.2618 71.7104 81.1282 76.6556 82 83L99 79L99 73L90 77L99 61L82 64z"/>
<path style="fill:#e3af27; stroke:none;" d="M89.6667 62.3333L90.3333 62.6667L89.6667 62.3333M116 62L117 63L116 62M86 63L87 64L86 63M104 63L105 64L104 63M109 63L110 66L111 66L109 63z"/>
<path style="fill:#de2010; stroke:none;" d="M17 64L18 65L17 64M109 64L111 67L109 64z"/>
<path style="fill:#e3af27; stroke:none;" d="M117 64L118 65L117 64z"/>
<path style="fill:#0faa08; stroke:none;" d="M33 65L33 67L35 67L33 65z"/>
<path style="fill:#e3af27; stroke:none;" d="M77 65L77 66L79 69L80 69L77 65M81 65L81 70L82 70L81 65M73.6667 66.3333L74.3333 66.6667L73.6667 66.3333z"/>
<path style="fill:#f1e2d7; stroke:none;" d="M62 69L62 75L70 71L61 87L79 84L79 77L70 82L79 66L62 69z"/>
<path style="fill:#e3af27; stroke:none;" d="M97 66L98 67L97 66M104 66L105 67L104 66M108 66L111 68L111 67L108 66z"/>
<path style="fill:#0faa08; stroke:none;" d="M29 67L30 68L29 67z"/>
<path style="fill:#e3af27; stroke:none;" d="M68.6667 67.3333L69.3333 67.6667L68.6667 67.3333M89 67L90 68L89 67M96 67L97 68L96 67M118 67L119 68L118 67M64.6667 68.3333L65.3333 68.6667L64.6667 68.3333M85.3333 68.6667L85.6667 69.3333L85.3333 68.6667z"/>
<path style="fill:#de2010; stroke:none;" d="M17 69L18 70L17 69M22 69L23 70L22 69z"/>
<path style="fill:#e3af27; stroke:none;" d="M95 69L96 70L95 69M103 69L104 70L103 69M119 69L120 70L119 69M55.6667 70.3333L56.3333 70.6667L55.6667 70.3333z"/>
<path style="fill:#f1e2d7; stroke:none;" d="M49 72L49 90C61.0175 89.4747 58.0234 79.8093 59 70L49 72z"/>
<path style="fill:#e3af27; stroke:none;" d="M59 70L59 74L60 74L59 70M61 70L61 75L62 75L61 70M82.6667 70.3333L83.3333 70.6667L82.6667 70.3333M87 70L88 71L87 70M94 70L95 71L94 70M107 70L108 71L107 70M112.333 70.6667L112.667 71.3333L112.333 70.6667M52.6667 71.3333L53.3333 71.6667L52.6667 71.3333M68 71L70 73L70 71L68 71M77 71L78 72L77 71M86 71L87 72L86 71M76 72L77 73L76 72M98 72L99 73L98 72M102 72L103 73L102 72M106 72L107 73L106 72M65.3333 73.6667L65.6667 74.3333L65.3333 73.6667M92 73L93 74L92 73M95 73L96 74L95 73M99 73L99 79L100 79L99 73M120 73L121 74L120 73M39 74L39 75L45 75L39 74M58 74L59 75L58 74M75 74L76 75L75 74M84 74L85 75L84 74M91 74L92 75L91 74M117.667 74.3333L118.333 74.6667L117.667 74.3333M35 75L36 76L35 75z"/>
<path style="fill:#f1e2d7; stroke:none;" d="M27 96L37 94L35 87C37.0211 86.5761 39.0777 86.2043 40.9892 85.3866C56.8057 78.62 34.3332 69.3598 28.0818 78.5247C26.6919 80.5624 27.4139 92.6037 27 96z"/>
<path style="fill:#e3af27; stroke:none;" d="M62 75L63 76L62 75M67 75L68 76L67 75M74 75L75 76L74 75M113 75L114 76L113 75M30.6667 76.3333L31.3333 76.6667L30.6667 76.3333M49 76L50 77L49 76M57 76L57 83L58 83L57 76M66 76L67 77L66 76M90 76L90 77L93 77L90 76M27 77L28 78L27 77M50 77L50 86L51 86L50 77M77 77L78 78L77 77M79 77L79 83L80 83L79 77M104.667 77.3333L105.333 77.6667L104.667 77.3333M26 78L26 81L27 81L26 78M72 78L73 79L72 78M75.3333 78.6667L75.6667 79.3333L75.3333 78.6667M81.3333 78.6667L81.6667 79.3333L81.3333 78.6667M101 78L102 79L101 78z"/>
<path style="fill:#de2010; stroke:none;" d="M36 79L36 83L40 81L36 79z"/>
<path style="fill:#e3af27; stroke:none;" d="M39 79L40 80L39 79M64 79L65 80L64 79M71 79L72 80L71 79M96 79L97 80L96 79M35 80L35 83L36 83L35 80M63 80L64 81L63 80M74 80L75 81L74 80M91.6667 80.3333L92.3333 80.6667L91.6667 80.3333z"/>
<path style="fill:#de2010; stroke:none;" d="M128 80L128 81L131 81L128 80z"/>
<path style="fill:#e3af27; stroke:none;" d="M39 81L40 82L39 81M46 81L47 82L46 81M70.6667 81.3333L71.3333 81.6667L70.6667 81.3333M88 81L89 82L88 81z"/>
<path style="fill:#de2010; stroke:none;" d="M125 81L122 94L121 94L116 83C100.181 87.5916 104.611 105.171 120 98C117.104 102.71 114.703 107.687 109 109L109 110L113 113C119.406 103.869 127.936 93.2239 125 81z"/>
<path style="fill:#e3af27; stroke:none;" d="M125 90L126 90L127 82L128 82C127.971 92.6733 125.276 102.004 118 110L123 99L122 99C120.28 102.91 113.384 108.703 113.917 112.847C114.836 119.984 123.359 109.58 124.475 107.91C129.646 100.172 130.975 90.1267 131 81C125.248 81.4587 125.047 84.8588 125 90M28 82L28 91L29 91L28 82M37 82L38 83L37 82M81 82L82 83L81 82M83.6667 82.3333L84.3333 82.6667L83.6667 82.3333z"/>
<path style="fill:#0faa08; stroke:none;" d="M119 82L120 83L119 82z"/>
<path style="fill:#e3af27; stroke:none;" d="M120 82L121 89L117 86L117 85L119 83L115 84L115 86L121 94L122 94L123 82L120 82z"/>
<path style="fill:#f1e2d7; stroke:none;" d="M127 82L118 110C125.009 104.574 130.637 90.6698 127 82z"/>
<path style="fill:#e3af27; stroke:none;" d="M44 83L45 84L44 83M61 83L62 84L61 83z"/>
<path style="fill:#f1e2d7; stroke:none;" d="M117 85L117 86L121 89L121 83L117 85z"/>
<path style="fill:#e3af27; stroke:none;" d="M43 84L44 85L43 84M59 84L59 88L60 88L59 84M74.6667 84.3333L75.3333 84.6667L74.6667 84.3333M41 85L42 86L41 85M71 85L72 86L71 85M37 86L38 87L37 86M49 86L50 87L49 86M66.6667 86.3333L67.3333 86.6667L66.6667 86.3333z"/>
<path style="fill:#0faa08; stroke:none;" d="M103 86L104 87L103 86z"/>
<path style="fill:#e3af27; stroke:none;" d="M91 89L106 107L107 107L111 100C104.65 96.2061 104.966 92.5217 107 86L91 89M35.3333 87.6667L35.6667 88.3333L35.3333 87.6667M61 87L61 88L64 88L61 87z"/>
<path style="fill:#de2010; stroke:none;" d="M96 90L102 87L96 90z"/>
<path style="fill:#e3af27; stroke:none;" d="M58 88L59 89L58 88z"/>
<path style="fill:#0faa08; stroke:none;" d="M134 88L128 108L139 111L144 95L138 97L137 88L134 88z"/>
<path style="fill:#e3af27; stroke:none;" d="M36 89L37 90L36 89M54 89L55 90L54 89z"/>
<path style="fill:#de2010; stroke:none;" d="M130.333 89.6667L130.667 90.3333L130.333 89.6667z"/>
<path style="fill:#e3af27; stroke:none;" d="M37 90L37 93L38 93L37 90M49.6667 90.3333L50.3333 90.6667L49.6667 90.3333M75 93L75 125C88.4064 122.502 97.5164 119.747 109 112L106 109C103.065 118.812 84.6338 121.903 76 123L76 122L94 116C90.8606 109.936 94.9785 103.459 101 109L105 108L90 90L75 93z"/>
<path style="fill:#de2010; stroke:none;" d="M90 90L91 91L90 90z"/>
<path style="fill:#e3af27; stroke:none;" d="M27 91L28 92L27 91z"/>
<path style="fill:rgba(0,0,0,0); stroke:none;" d="M90 91C93.921 99.4081 105.592 111.079 114 115C108.848 106.79 98.4356 95.8558 90 91z"/>
<path style="fill:#e3af27; stroke:none;" d="M124 91L124 95L125 95L124 91M26 92L26 95L27 95L26 92z"/>
<path style="fill:#0faa08; stroke:none;" d="M79 92L80 93L79 92M97 92L104 99C102.851 95.0014 100.904 93.3422 97 92z"/>
<path style="fill:#de2010; stroke:none;" d="M74 93L75 94L74 93M84.108 93.9668C77.4299 96.1886 81.5177 105.787 87.8519 103.238C93.5294 100.954 89.7785 92.0802 84.108 93.9668M93 93L94 94L93 93z"/>
<path style="fill:#e3af27; stroke:none;" d="M33.6667 94.3333L34.3333 94.6667L33.6667 94.3333z"/>
<path style="fill:#de2010; stroke:none;" d="M72 94L58 98C62.2038 106.521 75.7365 103.696 72 94M94 94L95 95L94 94z"/>
<path style="fill:#e3af27; stroke:none;" d="M28.6667 95.3333L29.3333 95.6667L28.6667 95.3333M120 95L121 96L120 95M123 95L123 98L124 98L123 95z"/>
<path style="fill:#de2010; stroke:none;" d="M129.333 95.6667L129.667 96.3333L129.333 95.6667M96 96L97 97L96 96M97 97L98 98L97 97M54 98L55 99L54 98z"/>
<path style="fill:#e3af27; stroke:none;" d="M74 125L74 123L61 121L61 120L73 122L73 99L72 99C67.242 104.998 62.335 103.816 58 98C52.9611 98.6547 39.0205 104.428 43.662 111.699C49.199 120.373 64.4364 124.588 74 125z"/>
<path style="fill:#de2010; stroke:none;" d="M98 98L99 99L98 98z"/>
<path style="fill:#e3af27; stroke:none;" d="M118 98L110 110C115.147 107.548 117.79 103.121 120 98L118 98z"/>
<path style="fill:#de2010; stroke:none;" d="M49 99L50 100L49 99M99 99L100 100L99 99M128 99L129 100L128 99M100 100L101 101L100 100z"/>
<path style="fill:#e3af27; stroke:none;" d="M114 100L115 101L114 100z"/>
<path style="fill:#f1e2d7; stroke:none;" d="M109 109L110 109L117 100C111.59 101.069 106.291 102.607 109 109z"/>
<path style="fill:#e3af27; stroke:none;" d="M35 103C38.3506 109.618 43.389 106.532 46 101L35 103z"/>
<path style="fill:#de2010; stroke:none;" d="M101 101L102 102L101 101M102 102L103 103L102 102M127 102L128 103L127 102M32 104C34.0416 107.391 35.9878 109.145 40 109L35 103L32 104z"/>
<path style="fill:#f1e2d7; stroke:none;" d="M38 103L41 107L38 103z"/>
<path style="fill:#de2010; stroke:none;" d="M103 103L104 104L103 103z"/>
<path style="fill:#e3af27; stroke:none;" d="M27 105L33 114L34 114L38 111L33 107L33 108L36 111L30 106L33 106L27 105z"/>
<path style="fill:#de2010; stroke:none;" d="M104 104L105 105L104 104z"/>
<path style="fill:#f1e2d7; stroke:none;" d="M48 110L43 108C46.4054 113.791 54.5366 118.518 61 120L61 119L49 110L54 112L54 106C50.1092 105.114 48.659 106.048 48 110z"/>
<path style="fill:#0faa08; stroke:none;" d="M65 105C65.9132 109.281 67.9902 110.564 72 112C71.1063 107.678 69.3223 105.894 65 105z"/>
<path style="fill:#de2010; stroke:none;" d="M105 105L106 106L105 105z"/>
<path style="fill:#f1e2d7; stroke:none;" d="M30 106L36 111L30 106z"/>
<path style="fill:#de2010; stroke:none;" d="M59.1088 107.086C53.1482 109.895 56.7743 118.571 62.8526 116.353C68.5497 114.273 64.776 104.416 59.1088 107.086M94.1481 107.043C88.6945 110.113 93.5761 117.926 98.8519 115.573C104.888 112.882 99.9963 103.751 94.1481 107.043z"/>
<path style="fill:#f1e2d7; stroke:none;" d="M79 107L78 114C82.6552 115.991 85.2863 114.762 87 110L79 107z"/>
<path style="fill:#0faa08; stroke:none;" d="M107 107L108 108L107 107z"/>
<path style="fill:#de2010; stroke:none;" d="M124 107L125 108L124 107z"/>
<path style="fill:#e3af27; stroke:none;" d="M65 108L66 109L65 108z"/>
<path style="fill:#f1e2d7; stroke:none;" d="M102 114L106 108C102.679 109.099 102.263 110.59 102 114z"/>
<path style="fill:#0faa08; stroke:none;" d="M108 108L109 109L108 108z"/>
<path style="fill:#de2010; stroke:none;" d="M41 109L39 112C45.9894 116.353 52.1315 122.077 60 124.91C76.6206 130.892 98.4604 125.009 111 113C99.2604 111.8 88.3373 129.577 75 123L74 123C64.6296 129.526 47.6422 114.761 41 109M123 109L124 110L123 109z"/>
<path style="fill:#f1e2d7; stroke:none;" d="M117 110L115 113L117 110z"/>
<path style="fill:#e3af27; stroke:none;" d="M127 110L127 111L130 111L127 110z"/>
<path style="fill:#de2010; stroke:none;" d="M30 111L31 112L30 111M121 111L122 112L121 111z"/>
<path style="fill:#f1e2d7; stroke:none;" d="M125.746 112.042C121.2 115.593 128.386 122.306 132.392 118.383C136.423 114.434 129.454 109.146 125.746 112.042z"/>
<path style="fill:#0faa08; stroke:none;" d="M130 111L131 112L130 111z"/>
<path style="fill:#de2010; stroke:none;" d="M31 112L32 113L31 112M35 112L36 113L35 112z"/>
<path style="fill:#e3af27; stroke:none;" d="M38 112L38 113L52 123L36 115L36 116C54.3413 131.079 74.9274 137.149 98 128.344C103.808 126.128 108.48 121.746 114 119C111.853 111.954 106.359 116.075 102 119L102 120L109 117C98.8402 125.638 88.4064 127.038 76 130L90 126L90 125C79.6797 126.311 70.0934 128.517 60 124.535C52.1089 121.423 46.1202 114.111 38 112M124 112L125 113L124 112z"/>
<path style="fill:#de2010; stroke:none;" d="M34 113L35 114L34 113M37 113L38 114L37 113z"/>
<path style="fill:#f1e2d7; stroke:none;" d="M38 113L52 123L38 113z"/>
<path style="fill:#de2010; stroke:none;" d="M36 114L37 115L36 114M118 114L119 115L118 114z"/>
<path style="fill:#f1e2d7; stroke:none;" d="M111 115L109 116L109 117L111 115z"/>
<path style="fill:#de2010; stroke:none;" d="M113 115L114 118L115 118L115 115L113 115M36 116L37 117L36 116z"/>
<path style="fill:#f1e2d7; stroke:none;" d="M76 122L76 123L97 118C91.6285 114.51 81.9057 120.468 76 122z"/>
<path style="fill:#e3af27; stroke:none;" d="M95 116L96 117L95 116M130 116L131 117L130 116z"/>
<path style="fill:#0faa08; stroke:none;" d="M26 120C21.8829 118.266 17.6806 116.94 16 122C21.6203 123.96 25.3725 131.071 31 132.25C35.0279 133.094 39.9278 125.432 37.6389 122.083C35.4747 118.917 27.1385 114.714 26 120z"/>
<path style="fill:#de2010; stroke:none;" d="M38 117L39 118L38 117z"/>
<path style="fill:#f1e2d7; stroke:none;" d="M76 130C87.6385 127.838 100.871 126.811 109 117L86 126.907L76 130z"/>
<path style="fill:#e3af27; stroke:none;" d="M124 117L125 118L124 117M133 118L134 119L133 118M127 119L131 121L131 120L127 119M132 119L133 120L132 119z"/>
<path style="fill:#f1e2d7; stroke:none;" d="M61 120L61 121L73 123L61 120z"/>
<path style="fill:#e3af27; stroke:none;" d="M100 120L101 121L100 120z"/>
<path style="fill:#de2010; stroke:none;" d="M110 120L111 121L110 120z"/>
<path style="fill:#f1e2d7; stroke:none;" d="M118 120L118 124L113 125L113 126C118.262 130.624 123.647 132.284 126 124L118 120z"/>
<path style="fill:#de2010; stroke:none;" d="M42 121L43 122L42 121z"/>
<path style="fill:#e3af27; stroke:none;" d="M98.6667 121.333L99.3333 121.667L98.6667 121.333z"/>
<path style="fill:#de2010; stroke:none;" d="M109 121L110 122L109 121z"/>
<path style="fill:#e3af27; stroke:none;" d="M117 121L117 124L118 124L117 121M96.6667 122.333L97.3333 122.667L96.6667 122.333M123 122L124 123L123 122z"/>
<path style="fill:#de2010; stroke:none;" d="M46 123L47 124L46 123z"/>
<path style="fill:#f1e2d7; stroke:none;" d="M52 123L52 124L73 130L73 128L52 123z"/>
<path style="fill:#e3af27; stroke:none;" d="M93.6667 123.333L94.3333 123.667L93.6667 123.333M114 123L115 124L114 123M124.667 123.333L125.333 123.667L124.667 123.333M91.6667 124.333L92.3333 124.667L91.6667 124.333z"/>
<path style="fill:#de2010; stroke:none;" d="M105 124L106 125L105 124z"/>
<path style="fill:#e3af27; stroke:none;" d="M113 124L114 125L113 124M118 124L121 127L118 124M126 124L126 127L127 127L126 124z"/>
<path style="fill:#de2010; stroke:none;" d="M103 125L104 126L103 125M50 126L51 127L50 126M101 126L102 127L101 126z"/>
<path style="fill:#e3af27; stroke:none;" d="M113 126L114 127L113 126M46 128L46 129L51 129L46 128z"/>
<path style="fill:#de2010; stroke:none;" d="M100 127L101 128L100 127z"/>
<path style="fill:#e3af27; stroke:none;" d="M114 127L115 128L114 127M125 127L126 128L125 127z"/>
<path style="fill:#0faa08; stroke:none;" d="M41 128L42 129L41 128z"/>
<path style="fill:#e3af27; stroke:none;" d="M42 128L42 129L45 129L42 128z"/>
<path style="fill:#f1e2d7; stroke:none;" d="M47 139L51 129C37.907 126.163 35.0945 140.931 47 139z"/>
<path style="fill:#de2010; stroke:none;" d="M54 128L55 129L54 128z"/>
<path style="fill:#0faa08; stroke:none;" d="M51 129L52 130L51 129z"/>
<path style="fill:#de2010; stroke:none;" d="M56.6667 129.333L57.3333 129.667L56.6667 129.333M93.6667 129.333L94.3333 129.667L93.6667 129.333z"/>
<path style="fill:#e3af27; stroke:none;" d="M105 129L104 131L105 129z"/>
<path style="fill:#f1e2d7; stroke:none;" d="M106.319 130.047C101.697 132.89 105.85 140.435 110.855 137.777C116.348 134.86 111.212 127.037 106.319 130.047z"/>
<path style="fill:#e3af27; stroke:none;" d="M111 129L112 130L111 129M117 129L118 130L117 129M123 129L124 130L123 129z"/>
<path style="fill:#de2010; stroke:none;" d="M58 130L59 131L58 130M91.6667 130.333L92.3333 130.667L91.6667 130.333z"/>
<path style="fill:#e3af27; stroke:none;" d="M112 130L113 131L112 130M122 130L123 131L122 130z"/>
<path style="fill:#0faa08; stroke:none;" d="M38 131L39 132L38 131z"/>
<path style="fill:#e3af27; stroke:none;" d="M50 131L51 132L50 131z"/>
<path style="fill:#de2010; stroke:none;" d="M62 131L63 132L62 131M85 131L86 132L85 131z"/>
<path style="fill:#f1e2d7; stroke:none;" d="M94 131C94.4689 136.212 96.1226 141.481 101 144C101.738 138.559 99.5022 132.721 94 131z"/>
<path style="fill:#e3af27; stroke:none;" d="M97 131L98 132L97 131M113 131L114 132L113 131M43 132L42 135L43 135L44 135L43 132z"/>
<path style="fill:#de2010; stroke:none;" d="M67 132L67 133L70 133L67 132M73 132L73 133L79 133L73 132z"/>
<path style="fill:#e3af27; stroke:none;" d="M103 132L103 136L104 136L103 132M107 133L107 134L109 135L110 135L109 132L107 133z"/>
<path style="fill:rgba(0,0,0,0); stroke:none;" d="M43 133L44 134L43 133z"/>
<path style="fill:#e3af27; stroke:none;" d="M48 133L49 134L48 133z"/>
<path style="fill:rgba(0,0,0,0); stroke:none;" d="M108.333 133.667L108.667 134.333L108.333 133.667z"/>
<path style="fill:#e3af27; stroke:none;" d="M38 134L39 135L38 134M54 134L55 135L54 134z"/>
<path style="fill:#f1e2d7; stroke:none;" d="M55.1327 134.931C50.4564 136.332 51.6314 145.248 56.8503 144.183C62.0865 143.114 61.2664 133.094 55.1327 134.931z"/>
<path style="fill:#e3af27; stroke:none;" d="M57 134L58 135L57 134z"/>
<path style="fill:#f1e2d7; stroke:none;" d="M65 134C65.2402 138.661 63.2209 147.036 70 146C69.28 140.978 70.7387 135.814 65 134z"/>
<path style="fill:#e3af27; stroke:none;" d="M68 134L69 135L68 134M75 134L76 135L75 134z"/>
<path style="fill:#f1e2d7; stroke:none;" d="M74 135L75 147L80 146L77 134L74 135z"/>
<path style="fill:#e3af27; stroke:none;" d="M77 134L78 135L77 134M52 135L53 136L52 135M69.3333 135.667L69.6667 136.333L69.3333 135.667M78 135L78 139L79 139L78 135M94.3333 135.667L94.6667 136.333L94.3333 135.667M99 135L100 136L99 135M38 136L39 137L38 136M60 136L61 137L60 136M86 136L87 137L86 136z"/>
<path style="fill:#f1e2d7; stroke:none;" d="M93 144L92 138C80.5649 133.014 81.9242 151.699 93 144z"/>
<path style="fill:#e3af27; stroke:none;" d="M89 136L90 137L89 136M104 136L105 137L104 136M113 136L114 137L113 136M39 137L40 138L39 137M46 137L47 138L46 137M51 137L51 142L52 142L51 137M65 137L66 138L65 137M74 137L75 138L74 137M91 137L92 138L91 137M100 137L101 138L100 137M112 137L113 138L112 137M83 138L84 139L83 138M106 138L107 139L106 138M110 138L111 139L110 138M46 139L47 140L46 139M96 139L97 140L96 139M101 139L102 140L101 139M44.6667 140.333L45.3333 140.667L44.6667 140.333M60 140L59 142L61 142L60 140M69 140L70 141L69 140M87 140L87 143L88 143L87 140M91 140L92 141L91 140M74 141L74 146L75 146L74 141z"/>
<path style="fill:rgba(0,0,0,0); stroke:none;" d="M87 141L88 142L87 141z"/>
<path style="fill:#e3af27; stroke:none;" d="M92 141L93 142L92 141M97.6667 142.333L98.3333 142.667L97.6667 142.333M101 142L102 143L101 142M52 143L53 144L52 143M59 143L60 144L59 143M69 143L70 144L69 143M79.3333 143.667L79.6667 144.333L79.3333 143.667M83.3333 143.667L83.6667 144.333L83.3333 143.667M54 144L55 145L54 144M70 144L71 145L70 144M84 145L85 146L84 145M90.6667 145.333L91.3333 145.667L90.6667 145.333M65 146L66 147L65 146M69 146L70 147L69 146M79 146L80 147L79 146z"/>
</svg>
